<svg width="268" height="268" viewBox="0 0 268 268" fill="none" xmlns="http://www.w3.org/2000/svg">
<path d="M263 130.5C263 201.469 205.469 259 134.5 259C63.5314 259 6 201.469 6 130.5C6 59.5314 63.5314 2 134.5 2C205.469 2 263 59.5314 263 130.5Z" fill="#545454"/>
<path d="M225 145.5C225 202.661 178.661 249 121.5 249C64.3385 249 18 202.661 18 145.5C18 88.3385 64.3385 42 121.5 42C178.661 42 225 88.3385 225 145.5Z" fill="#FEF7F7"/>
<path fill-rule="evenodd" clip-rule="evenodd" d="M134 268C208.006 268 268 208.006 268 134C268 59.9938 208.006 0 134 0C59.9938 0 0 59.9938 0 134C0 208.006 59.9938 268 134 268ZM134.5 259C203.812 259 260 202.812 260 133.5C260 64.1883 203.812 8 134.5 8C65.1883 8 9 64.1883 9 133.5C9 202.812 65.1883 259 134.5 259Z" fill="#FF4949"/>
<path fill-rule="evenodd" clip-rule="evenodd" d="M122.5 250C180.766 250 228 202.766 228 144.5C228 86.234 180.766 39 122.5 39C64.234 39 17 86.234 17 144.5C17 202.766 64.234 250 122.5 250ZM122 239C173.915 239 216 196.915 216 145C216 93.0852 173.915 51 122 51C70.0852 51 28 93.0852 28 145C28 196.915 70.0852 239 122 239Z" fill="#FF4949"/>
<path d="M101.605 181.315L157.315 145.501L101.605 109.688V181.315ZM121.502 225.087C110.492 225.087 100.146 222.997 90.4635 218.819C80.7806 214.641 72.3579 208.971 65.1952 201.808C58.0326 194.645 52.3622 186.222 48.1839 176.54C44.0057 166.857 41.9166 156.511 41.9166 145.501C41.9166 134.492 44.0057 124.146 48.1839 114.463C52.3622 104.781 58.0326 96.3578 65.1952 89.1951C72.3579 82.0325 80.7806 76.362 90.4635 72.1838C100.146 68.0056 110.492 65.9165 121.502 65.9165C132.511 65.9165 142.857 68.0056 152.54 72.1838C162.223 76.362 170.645 82.0325 177.808 89.1951C184.971 96.3578 190.641 104.781 194.819 114.463C198.998 124.146 201.087 134.492 201.087 145.501C201.087 156.511 198.998 166.857 194.819 176.54C190.641 186.222 184.971 194.645 177.808 201.808C170.645 208.971 162.223 214.641 152.54 218.819C142.857 222.997 132.511 225.087 121.502 225.087ZM121.502 209.169C139.276 209.169 154.33 203.002 166.666 190.666C179.002 178.33 185.17 163.275 185.17 145.501C185.17 127.728 179.002 112.673 166.666 100.337C154.33 88.0013 139.276 81.8335 121.502 81.8335C103.728 81.8335 88.6728 88.0013 76.3371 100.337C64.0015 112.673 57.8336 127.728 57.8336 145.501C57.8336 163.275 64.0015 178.33 76.3371 190.666C88.6728 203.002 103.728 209.169 121.502 209.169Z" fill="#545454"/>
</svg>
