<svg width="21" height="21" viewBox="0 0 21 21" fill="none" xmlns="http://www.w3.org/2000/svg">
<path d="M3.00002 17V15H5.00002V8C5.00002 7.45 5.07086 6.90833 5.21252 6.375C5.35419 5.84167 5.56669 5.33333 5.85002 4.85L7.35003 6.35C7.23336 6.61667 7.14586 6.8875 7.08752 7.1625C7.02919 7.4375 7.00002 7.71667 7.00002 8V15H13.2L0.400024 2.2L1.80002 0.8L20.2 19.2L18.8 20.6L15.15 17H3.00002ZM17 13.15L15 11.15V8C15 6.9 14.6084 5.95833 13.825 5.175C13.0417 4.39167 12.1 4 11 4C10.5667 4 10.15 4.06667 9.75002 4.2C9.35003 4.33333 8.98336 4.53333 8.65003 4.8L7.20003 3.35C7.53336 3.08333 7.89169 2.85 8.27502 2.65C8.65836 2.45 9.06669 2.3 9.50002 2.2V1.5C9.50002 1.08333 9.64586 0.729167 9.93752 0.4375C10.2292 0.145833 10.5834 0 11 0C11.4167 0 11.7709 0.145833 12.0625 0.4375C12.3542 0.729167 12.5 1.08333 12.5 1.5V2.2C13.8334 2.53333 14.9167 3.2375 15.75 4.3125C16.5834 5.3875 17 6.61667 17 8V13.15ZM11 20C10.45 20 9.97919 19.8042 9.58753 19.4125C9.19586 19.0208 9.00002 18.55 9.00002 18H13C13 18.55 12.8042 19.0208 12.4125 19.4125C12.0209 19.8042 11.55 20 11 20Z" fill="#FEF7F7"/>
</svg>
